HIERARCHY
ROOT Hips
{
	OFFSET	0.000000	0.000000	0.000000
	CHANNELS 6 Xposition Yposition Zposition Zrotation Xrotation Yrotation
	JOINT LeftHip
	{
		OFFSET	4.740440	-3.195970	-0.322709
		CHANNELS 3 Zrotation Xrotation Yrotation
		JOINT LeftKnee
		{
			OFFSET	-1.605680	-15.592300	1.005510
			CHANNELS 3 Zrotation Xrotation Yrotation
			JOINT LeftAnkle
			{
				OFFSET	-0.632401	-16.421000	-1.413730
				CHANNELS 3 Zrotation Xrotation Yrotation
				End Site
				{
					OFFSET	0.008423	-3.933000	-2.776750
				}
			}
		}
	}
	JOINT RightHip
	{
		OFFSET	-4.740440	-3.195970	-0.322709
		CHANNELS 3 Zrotation Xrotation Yrotation
		JOINT RightKnee
		{
			OFFSET	1.605680	-15.592300	1.005510
			CHANNELS 3 Zrotation Xrotation Yrotation
			JOINT RightAnkle
			{
				OFFSET	0.632401	-16.421000	-1.413730
				CHANNELS 3 Zrotation Xrotation Yrotation
				End Site
				{
					OFFSET	-0.008423	-3.933000	-2.776750
				}
			}
		}
	}
	JOINT Chest
	{
		OFFSET	0.000000	3.468200	0.078401
		CHANNELS 3 Zrotation Xrotation Yrotation
		JOINT LeftCollar
		{
			OFFSET	3.857650	15.070700	-0.011583
			CHANNELS 3 Zrotation Xrotation Yrotation
			JOINT LeftShoulder
			{
				OFFSET	3.979720	-1.940530	-0.165223
				CHANNELS 3 Zrotation Xrotation Yrotation
				JOINT LeftElbow
				{
					OFFSET	0.615844	-10.986600	-0.673886
					CHANNELS 3 Zrotation Xrotation Yrotation
					JOINT LeftWrist
					{
						OFFSET	0.826843	-10.854500	1.034220
						CHANNELS 3 Zrotation Xrotation Yrotation
						End Site
						{
							OFFSET	-1.679080	-8.456540	0.936217
						}
					}
				}
			}
		}
		JOINT RightCollar
		{
			OFFSET	-3.857650	15.070700	-0.011583
			CHANNELS 3 Zrotation Xrotation Yrotation
			JOINT RightShoulder
			{
				OFFSET	-3.979720	-1.940530	-0.165223
				CHANNELS 3 Zrotation Xrotation Yrotation
				JOINT RightElbow
				{
					OFFSET	-0.615845	-10.986600	-0.673886
					CHANNELS 3 Zrotation Xrotation Yrotation
					JOINT RightWrist
					{
						OFFSET	-0.826843	-10.854500	1.034220
						CHANNELS 3 Zrotation Xrotation Yrotation
						End Site
						{
							OFFSET	1.679080	-8.456540	0.936217
						}
					}
				}
			}
		}
		JOINT Neck
		{
			OFFSET	0.000000	15.101400	0.055730
			CHANNELS 3 Zrotation Xrotation Yrotation
			JOINT Head
			{
				OFFSET	0.000000	4.185120	1.488260
				CHANNELS 3 Zrotation Xrotation Yrotation
				End Site
				{
					OFFSET	0.000000	7.773420	-0.106016
				}
			}
		}
	}
}
MOTION
Frames:     17
Frame Time: 0.016667
3.854737	38.066837	0.611649	-2.015579	-8.759727	-83.509743	18.793491	-9.198392	11.696740	-14.509712	14.924886	11.777529	-0.653370	2.720052	-0.250900	-9.197620	-14.558528	-17.656870	1.999327	26.971176	-1.660272	-6.338075	-9.248592	0.778381	7.047124	53.003040	-4.044934	8.391745	-10.740198	-7.968395	-11.615458	-54.120621	-15.461279	-15.701246	-31.351587	-44.010975	22.878111	-2.760854	-28.089405	-11.987858	-7.112723	19.561708	-37.077847	-46.076424	-11.676565	-11.429473	-30.194139	13.622018	-22.315392	-20.897694	4.388122	-2.880613	7.872328	6.249979	15.058877	8.859159	-19.991259	
3.760751	38.068424	0.607262	-2.441939	-8.636716	-83.937675	18.985592	-9.535783	11.542150	-15.247627	16.162004	10.603086	-1.021838	2.804614	-0.566306	-8.881893	-13.968095	-17.384256	1.982487	26.848352	-1.542338	-6.367767	-9.406444	0.831706	6.732604	53.022228	-3.552817	8.331140	-10.576000	-7.926600	-11.804085	-53.833359	-15.477017	-15.387945	-30.930264	-43.816566	22.680677	-2.880768	-27.942476	-11.909425	-7.114782	19.686375	-36.251347	-46.000603	-11.126361	-11.380625	-29.793375	14.210848	-22.469101	-20.900002	4.349509	-3.080855	7.863023	6.526312	14.968367	8.660158	-19.943401	
3.660335	38.071102	0.623151	-2.769622	-8.497906	-84.364754	19.120260	-9.944881	11.711139	-15.766800	17.263617	9.769624	-1.388824	2.833382	-0.732902	-8.650355	-13.473914	-17.130768	2.045831	26.755016	-1.438766	-6.395298	-9.559794	0.893511	6.362604	52.920864	-3.055657	8.306831	-10.363662	-7.877701	-11.913167	-53.480816	-15.404736	-15.129624	-30.584211	-43.673653	22.548710	-3.061947	-27.785810	-11.711390	-7.299625	19.700270	-35.217457	-45.815796	-10.223966	-11.295429	-29.329294	14.695881	-22.590712	-20.959997	4.223344	-3.234199	7.807689	6.869355	14.957467	8.697575	-20.029367	
3.568518	38.074207	0.644815	-3.053904	-8.362937	-84.765442	19.293289	-10.348835	12.159144	-16.215378	18.247429	9.364378	-1.569475	2.787114	-0.815335	-8.470242	-13.032658	-16.912373	2.136324	26.671803	-1.368728	-6.419280	-9.697828	0.989540	6.045185	52.735573	-2.632744	8.263010	-10.130404	-7.864104	-11.985677	-53.070938	-15.345357	-14.876133	-30.273809	-43.562710	22.546156	-3.286312	-27.635357	-11.609788	-7.278749	19.721506	-34.330299	-45.761250	-9.503825	-11.190420	-28.841469	15.104146	-22.758362	-21.069338	4.063596	-3.415480	7.757897	7.266426	14.910955	8.782281	-20.141659	
3.466769	38.079803	0.674184	-3.301129	-8.224970	-85.150688	19.446770	-10.801277	12.623631	-16.589331	19.114098	9.521454	-1.719909	2.756393	-0.796708	-8.297816	-12.598679	-16.749924	2.180969	26.572754	-1.264652	-6.411518	-9.848577	1.111156	5.752985	52.477493	-2.284718	8.219715	-9.868620	-7.832968	-11.998500	-52.628151	-15.263491	-14.690836	-30.022203	-43.493069	22.593147	-3.502598	-27.445061	-11.542669	-7.025426	19.912144	-33.652271	-45.760559	-9.036809	-11.132888	-28.369791	15.479218	-22.970177	-21.198824	3.933401	-3.596049	7.736333	7.683037	14.999617	9.050662	-20.324486	
3.358948	38.083496	0.727442	-3.554991	-8.048866	-85.513130	19.517710	-11.267278	13.048440	-16.829107	19.809738	9.991247	-1.818187	2.754158	-0.665481	-8.123135	-12.165533	-16.638140	2.170990	26.517662	-1.110554	-6.339310	-10.007083	1.234475	5.502738	52.245750	-2.006900	8.202493	-9.638558	-7.770202	-11.935103	-52.176556	-15.155261	-14.605411	-29.809090	-43.438663	22.698229	-3.642828	-27.312792	-11.451215	-7.030885	19.984770	-32.578968	-45.633842	-8.249775	-11.056519	-27.936312	15.944362	-23.242439	-21.329988	3.750212	-3.744662	7.636541	8.149503	14.749172	8.984313	-20.278767	
3.247754	38.079891	0.782832	-3.887105	-7.786279	-85.826218	19.654879	-11.649602	13.376410	-17.050985	20.294567	10.503765	-1.854905	2.796759	-0.506128	-7.899675	-11.627234	-16.528858	2.249916	26.472227	-1.079590	-6.275709	-10.198952	1.402895	5.399594	52.080585	-1.833133	8.158699	-9.429334	-7.714046	-11.797616	-51.673050	-15.018161	-14.557649	-29.679710	-43.463734	22.870485	-3.750199	-27.035055	-11.373141	-7.249465	19.882957	-31.181326	-45.391342	-7.167269	-10.942291	-27.527748	16.436155	-23.909304	-21.403555	3.474296	-3.868424	7.525426	8.632167	14.668946	9.113956	-20.350370	
3.126735	38.068768	0.842463	-4.193562	-7.508650	-86.125298	19.800714	-12.038655	13.731481	-17.155281	20.491274	10.790725	-1.938054	2.904217	-0.421911	-7.680339	-11.140693	-16.453484	2.302705	26.516029	-1.025189	-6.179034	-10.440612	1.564629	5.335846	51.866116	-1.694804	8.069538	-9.224729	-7.666076	-11.624679	-51.086163	-14.893660	-14.569378	-29.706942	-43.497383	23.310143	-3.923038	-26.861029	-11.300108	-7.246045	19.939116	-30.174772	-45.134254	-6.466754	-10.787519	-27.259237	16.774326	-24.743111	-21.144855	3.401210	-4.030627	7.493986	9.114453	14.615477	9.225311	-20.409803	
2.997450	38.052322	0.903438	-4.532173	-7.231670	-86.398323	19.924219	-12.406213	14.059809	-17.168066	20.451159	10.824647	-2.153830	3.131692	-0.425617	-7.491366	-10.630847	-16.401754	2.380274	26.635988	-0.952985	-6.084692	-10.720728	1.694103	5.275807	51.688950	-1.557030	7.944611	-9.059289	-7.687449	-11.379952	-50.522018	-14.648743	-14.663008	-29.649738	-43.473621	23.209652	-3.932033	-27.043247	-11.198941	-7.288878	19.942886	-29.163960	-44.845966	-5.732884	-10.716697	-26.903666	16.888577	-24.930538	-20.958548	3.091917	-4.165634	7.387103	9.450912	14.580179	9.421745	-20.389410	
2.874681	38.035053	0.970796	-4.909410	-6.967311	-86.678856	20.037724	-12.718334	14.253723	-17.097967	20.140951	10.627824	-2.512050	3.468017	-0.359323	-7.338521	-10.099812	-16.353472	2.464905	26.780787	-0.842280	-5.988379	-10.993789	1.796882	5.223772	51.549984	-1.449798	7.828409	-8.873440	-7.671942	-11.214832	-50.029797	-14.424217	-14.885905	-29.519867	-43.571526	23.130316	-3.797451	-27.143129	-11.095722	-7.374014	19.940119	-28.087221	-44.476753	-4.992687	-10.655789	-26.604828	16.756310	-24.683210	-20.988447	3.318173	-4.320162	7.244251	9.752882	14.540392	9.665385	-20.359055	
2.758234	37.999229	1.037290	-5.281404	-6.654891	-86.955368	20.249592	-13.080594	14.294830	-17.164751	19.690727	10.454325	-2.834890	3.780207	-0.260481	-7.147079	-9.663829	-16.352619	2.500543	27.080864	-0.713784	-5.868928	-11.339101	1.943250	5.178746	51.368675	-1.349487	7.659009	-8.695243	-7.640532	-10.969532	-49.503544	-14.246291	-15.064593	-29.362984	-43.716644	23.052416	-3.550629	-27.168518	-11.009820	-7.431999	19.928774	-26.994827	-44.022991	-4.346614	-10.547229	-26.413542	16.664045	-24.251226	-21.158804	3.619064	-4.474276	7.199044	10.010263	14.477604	9.862990	-20.245275	
2.628376	37.960293	1.108951	-5.621458	-6.380202	-87.264252	20.479635	-13.466560	14.285699	-17.213957	19.108797	10.295526	-3.261411	4.127822	-0.109178	-7.053248	-9.254243	-16.360495	2.599526	27.441441	-0.580859	-5.768757	-11.760221	2.114478	5.015436	51.181026	-1.197113	7.524317	-8.569556	-7.603854	-10.671041	-48.942730	-14.098723	-15.188293	-29.256245	-43.818581	22.966297	-3.376626	-27.350760	-10.960193	-7.510910	19.882498	-25.831663	-43.581562	-3.745570	-10.332502	-26.248470	16.753332	-24.062260	-21.274298	3.826720	-4.602293	7.124577	10.334564	14.426062	10.118224	-20.170630	
2.492136	37.916550	1.185526	-5.954595	-6.099256	-87.562515	20.693590	-13.878493	14.230825	-17.201349	18.471472	10.224539	-3.730507	4.493624	0.059865	-6.996969	-8.848811	-16.417955	2.723755	27.851383	-0.481521	-5.664412	-12.225520	2.356643	4.853000	50.976074	-1.084932	7.394117	-8.473572	-7.527369	-10.330307	-48.314228	-14.002482	-15.333887	-29.249540	-43.863033	22.905241	-3.253711	-27.544893	-10.920511	-7.592986	19.846043	-24.680716	-43.084877	-3.101172	-10.106755	-26.185888	16.888817	-24.212536	-21.330929	3.760345	-4.705206	7.054850	10.757341	14.391565	10.450261	-20.178553	
2.349128	37.866257	1.265322	-6.349758	-5.872724	-87.901878	20.896482	-14.187771	14.178354	-17.123280	17.774891	10.266049	-4.323142	4.867461	0.299857	-7.022661	-8.426074	-16.446112	2.857157	28.379921	-0.284071	-5.581399	-12.746973	2.504835	4.560243	50.813324	-0.878023	7.303586	-8.355317	-7.526192	-9.789725	-47.636749	-13.716982	-15.618341	-29.381569	-43.946812	22.922831	-3.180536	-27.599190	-10.880581	-7.633458	19.781958	-23.579952	-42.545429	-2.473583	-9.836017	-26.215292	17.098879	-24.547337	-21.372818	3.683358	-4.796599	6.997062	11.091623	14.361872	10.829478	-20.163782	
2.205770	37.811256	1.376470	-6.800759	-5.602085	-88.206833	21.140055	-14.480319	14.008673	-17.005316	17.040277	10.571083	-4.970324	5.229013	0.554770	-7.093396	-7.947924	-16.465137	3.062358	28.949368	-0.086213	-5.501859	-13.275236	2.601290	4.367019	50.718708	-0.756069	7.183704	-8.190995	-7.515587	-9.281153	-46.965229	-13.476196	-15.914165	-29.566164	-44.032852	23.065252	-3.220917	-27.728722	-10.831229	-7.658174	19.764193	-22.631575	-41.932091	-1.915391	-9.581110	-26.393850	17.266375	-24.847895	-21.266378	3.487522	-4.889349	6.925854	11.331266	14.252185	11.194438	-19.993593	
2.045681	37.751926	1.500063	-7.252573	-5.313761	-88.543655	21.382759	-14.743076	13.839334	-16.773394	16.238939	11.015652	-5.683187	5.680871	0.844222	-7.202008	-7.448296	-16.521465	3.297824	29.554499	0.157408	-5.445189	-13.840351	2.716709	4.171314	50.655624	-0.635498	7.025994	-8.003688	-7.500872	-8.708344	-46.265900	-13.085453	-16.432997	-29.855042	-44.299759	23.300085	-3.168623	-27.963076	-10.748654	-7.674648	19.766521	-21.802500	-41.309441	-1.408445	-9.316011	-26.703772	17.405918	-25.038673	-21.134626	3.469886	-5.007504	6.883307	11.551310	14.087870	11.464875	-19.761480	
1.877476	37.679012	1.634729	-7.625957	-4.968355	-88.859879	21.685822	-14.988871	13.753503	-16.497309	15.390718	11.454107	-6.503747	6.096847	1.148064	-7.308840	-7.052645	-16.616890	3.555132	30.251038	0.349060	-5.372016	-14.460552	2.901375	4.105709	50.532101	-0.613751	6.882121	-7.788721	-7.411427	-8.188626	-45.581577	-12.717705	-17.053749	-30.244579	-44.607586	23.517479	-3.055388	-28.254780	-10.644635	-7.654323	19.763893	-21.124552	-40.693134	-0.965100	-8.980055	-27.130775	17.586063	-25.054104	-21.041508	3.561113	-5.157218	6.824694	11.846234	13.939956	11.641082	-19.502298	
